<svg xmlns="http://www.w3.org/2000/svg" width="151" height="151" fill="none"><path fill="url(#a)" fillRule="evenodd" d="M74.385.007a77.51 77.51 0 0 1 2.08 0l-.444 32.889a43.27 43.27 0 0 0-1.183 0L74.385.007Zm-6.208.338c.69-.066 1.381-.122 2.072-.17l2.229 32.817a43.69 43.69 0 0 0-1.168.096L68.177.344ZM80.61.175c.69.048 1.382.104 2.064.17l-3.133 32.742a41.089 41.089 0 0 0-1.168-.095L80.61.176Zm6.192.679c.682.104 1.365.218 2.047.34l-5.822 32.372c-.386-.069-.764-.133-1.159-.191L86.802.854Zm-24.8.34a73.847 73.847 0 0 1 2.055-.34l4.926 32.52c-.387.06-.773.123-1.16.192L62.001 1.194Zm-6.094 1.36c.674-.179 1.34-.349 2.023-.51l7.606 32c-.378.09-.756.186-1.135.286L55.908 2.554Zm37.02-.51c.674.161 1.349.331 2.015.51L86.448 34.33c-.37-.1-.748-.196-1.126-.286l7.606-32ZM49.946 4.416c.658-.234 1.308-.459 1.974-.675l10.246 31.255c-.37.122-.74.248-1.11.38l-11.11-30.96Zm48.993-.675c.658.216 1.316.441 1.965.675l-11.109 30.96a38.226 38.226 0 0 0-1.102-.38L98.94 3.741ZM44.166 6.768a76.944 76.944 0 0 1 1.907-.838l12.812 30.296c-.362.152-.724.309-1.077.47L44.166 6.768Zm60.62-.838c.633.271 1.274.55 1.907.838l-13.65 29.928a37.624 37.624 0 0 0-1.069-.47L104.786 5.93Zm5.641 2.668c.616.322 1.225.653 1.825.991L96.176 38.284c-.337-.19-.682-.377-1.028-.558l15.279-29.128Zm-71.828.991a80.075 80.075 0 0 1 1.834-.99L55.71 37.725c-.346.181-.691.367-1.036.558L38.599 9.589Zm77.222 2.132c.584.371 1.167.75 1.743 1.138L99.169 40.128c-.32-.219-.65-.433-.978-.642l17.63-27.765Zm-82.526 1.138a82.196 82.196 0 0 1 1.735-1.138l17.638 27.765c-.329.21-.658.423-.986.642l-18.387-27.27Zm87.649 2.417c.551.418 1.093.843 1.636 1.276l-20.574 25.663a37.96 37.96 0 0 0-.929-.722l19.867-26.217Zm-92.665 1.276a66 66 0 0 1 1.636-1.276l19.859 26.217c-.313.237-.617.477-.921.722L28.279 16.552Zm-4.695 4.092a90.7 90.7 0 0 1 1.52-1.407L47.06 43.734c-.296.261-.584.527-.863.796L23.584 20.644Zm102.162-1.407c.518.462 1.028.931 1.529 1.407L104.662 44.53c-.288-.27-.575-.535-.863-.796l21.947-24.497Zm4.465 4.342c.469.503.938 1.012 1.406 1.527l-24.496 21.95a40.12 40.12 0 0 0-.798-.864l23.888-22.613Zm-110.97 1.527c.461-.515.93-1.024 1.407-1.527l23.888 22.613c-.272.284-.535.572-.798.864l-24.496-21.95Zm-3.963 4.805c.42-.552.847-1.098 1.275-1.638l25.664 20.574c-.247.306-.485.615-.724.927L15.278 29.91Zm119.02-1.638c.436.54.863 1.086 1.274 1.638l-26.214 19.863a44.18 44.18 0 0 0-.724-.927l25.664-20.574ZM11.726 35.03a72.03 72.03 0 0 1 1.135-1.739l27.267 18.393c-.214.324-.427.65-.641.98L11.726 35.03ZM137.99 33.29c.387.574.773 1.154 1.143 1.739l-27.769 17.635c-.206-.33-.419-.657-.641-.981L137.99 33.29ZM8.601 40.427c.32-.614.65-1.224.987-1.828l28.698 16.078c-.189.34-.378.683-.559 1.03L8.601 40.425Zm132.662-1.828c.337.604.666 1.214.987 1.828l-29.126 15.28c-.181-.347-.362-.69-.559-1.03l28.698-16.078ZM5.929 46.069c.271-.64.55-1.276.839-1.907l29.931 13.645c-.164.355-.32.712-.468 1.072L5.928 46.069Zm138.154-1.907c.288.631.568 1.267.839 1.907l-30.293 12.81c-.157-.36-.313-.717-.477-1.072l29.931-13.645ZM3.742 51.915c.222-.66.444-1.316.674-1.968l30.96 11.109c-.132.366-.256.734-.379 1.105L3.741 51.915Zm142.693-1.968c.23.652.461 1.308.674 1.968l-31.255 10.246c-.124-.37-.247-.739-.378-1.105l30.959-11.11Zm1.867 5.96c.172.67.345 1.342.501 2.018l-31.995 7.609c-.091-.38-.19-.757-.288-1.133l31.782-8.494ZM2.048 57.925c.156-.676.328-1.349.51-2.018l31.773 8.494a50.83 50.83 0 0 0-.288 1.133l-31.995-7.61Zm147.61 4.074c.124.682.239 1.367.338 2.055l-32.522 4.926c-.058-.387-.124-.773-.189-1.157L149.658 62ZM.855 64.053c.107-.688.222-1.373.346-2.056l32.365 5.825c-.066.384-.131.77-.189 1.157L.855 64.054Zm-.674 6.19c.041-.692.099-1.38.164-2.067l32.744 3.13-.098 1.17L.18 70.244Zm150.324-2.067c.066.687.124 1.375.173 2.067l-32.818 2.233a26.673 26.673 0 0 0-.099-1.17l32.744-3.13ZM0 75.425c0-.347.008-.694.008-1.04l32.892.446c-.008.198-.008.395-.008.594 0 .198 0 .395.008.593l-32.892.446c0-.346-.008-.693-.008-1.04Zm150.843-1.04c.008.346.008.693.008 1.04 0 .346 0 .693-.008 1.039l-32.884-.446V74.83l32.884-.446ZM.345 82.672a57.429 57.429 0 0 1-.164-2.066l32.81-2.234.098 1.17-32.744 3.13Zm150.333-2.066c-.049.69-.107 1.38-.173 2.066l-32.744-3.13c.042-.388.074-.778.099-1.17l32.818 2.234ZM1.201 88.85a84.344 84.344 0 0 1-.346-2.056l32.522-4.926c.058.387.123.773.19 1.157L1.2 88.85Zm148.795-2.056a56.5 56.5 0 0 1-.338 2.056l-32.373-5.825c.065-.384.131-.77.189-1.157l32.522 4.926ZM2.557 94.942a56.005 56.005 0 0 1-.51-2.017l31.996-7.61c.09.38.19.758.288 1.133L2.557 94.942Zm146.246-2.017a83.061 83.061 0 0 1-.501 2.017l-31.782-8.494c.098-.375.197-.753.288-1.133l31.995 7.61ZM4.416 100.903a137.95 137.95 0 0 1-.675-1.969l31.256-10.246c.123.371.247.74.378 1.105l-30.96 11.11Zm142.693-1.969c-.213.66-.444 1.317-.674 1.969l-30.959-11.11c.131-.366.254-.734.378-1.105l31.255 10.246ZM6.768 106.687a77.446 77.446 0 0 1-.84-1.907L36.23 91.97c.149.36.305.717.47 1.072L6.767 106.687Zm138.154-1.907a75.42 75.42 0 0 1-.839 1.907l-29.931-13.645c.164-.355.32-.712.477-1.072l30.293 12.81Zm-2.672 5.643c-.321.615-.65 1.224-.987 1.828l-28.698-16.078c.197-.34.378-.683.559-1.029l29.126 15.279ZM9.588 112.251a72.987 72.987 0 0 1-.987-1.828l29.126-15.279c.181.346.37.688.56 1.029L9.587 112.25Zm3.273 5.307a72.369 72.369 0 0 1-1.135-1.737l27.76-17.635c.215.33.428.657.642.98l-27.267 18.392Zm126.272-1.737c-.37.584-.756 1.164-1.143 1.737l-27.267-18.392c.222-.323.435-.65.641-.98l27.769 17.635Zm-122.58 6.755c-.428-.54-.855-1.086-1.275-1.638l26.215-19.863c.239.313.477.621.724.926l-25.664 20.575Zm119.019-1.638a52.969 52.969 0 0 1-1.274 1.638l-25.664-20.575c.247-.305.485-.613.724-.926l26.214 19.863ZM20.648 127.27a71.132 71.132 0 0 1-1.406-1.527l24.496-21.95c.263.292.526.58.798.864L20.648 127.27Zm110.969-1.527c-.468.515-.937 1.024-1.406 1.527l-23.888-22.613c.272-.284.535-.572.798-.864l24.496 21.95Zm-106.512 5.868c-.51-.461-1.02-.93-1.521-1.406l22.613-23.886c.28.269.567.535.863.796l-21.955 24.496Zm102.17-1.406c-.501.476-1.011.945-1.529 1.406l-21.947-24.496c.288-.261.575-.527.863-.796l22.613 23.886Zm-97.36 5.368a63.224 63.224 0 0 1-1.636-1.276l20.574-25.663c.304.245.608.485.92.722l-19.858 26.217Zm92.665-1.276c-.543.433-1.085.859-1.636 1.276l-19.867-26.217c.313-.237.625-.477.929-.722l20.574 25.663Zm-87.55 4.831a88.52 88.52 0 0 1-1.735-1.137l18.386-27.27c.33.219.658.432.987.642L35.03 139.128Zm82.534-1.137c-.576.386-1.159.765-1.743 1.137l-17.63-27.765c.329-.21.658-.423.978-.642l18.395 27.27Zm-77.131 4.26a76.849 76.849 0 0 1-1.834-.992l16.076-28.694c.345.191.69.377 1.036.559l-15.279 29.127Zm71.819-.992c-.6.339-1.209.67-1.825.992l-15.279-29.127c.346-.182.69-.368 1.028-.559l16.076 28.694Zm-66.179 3.66a76.727 76.727 0 0 1-1.907-.838l13.642-29.929c.353.162.715.319 1.077.472l-12.812 30.295Zm60.62-.838a92.93 92.93 0 0 1-1.907.838l-12.812-30.295c.362-.153.716-.31 1.07-.472l13.649 29.929Zm-54.773 3.028a77.415 77.415 0 0 1-1.974-.676l11.11-30.959c.37.131.74.257 1.11.379L51.92 147.109Zm48.984-.676a76.01 76.01 0 0 1-1.965.676l-10.246-31.256c.37-.122.74-.248 1.102-.379l11.109 30.959Zm-42.973 2.372a74.552 74.552 0 0 1-2.023-.51l8.494-31.776c.379.1.757.196 1.135.286l-7.606 32Zm37.012-.51c-.666.179-1.34.349-2.015.51l-7.606-32c.378-.09.756-.186 1.126-.286l8.495 31.776Zm-30.886 1.701a75.786 75.786 0 0 1-2.056-.341l5.822-32.372c.387.069.773.133 1.16.191l-4.926 32.522Zm24.793-.341c-.675.123-1.365.236-2.048.341l-4.934-32.522c.395-.058.773-.122 1.16-.191l5.822 32.372Zm-18.6 1.018a80.315 80.315 0 0 1-2.073-.168l3.133-32.744c.386.037.781.07 1.168.097l-2.229 32.815Zm12.424-.168a76.83 76.83 0 0 1-2.064.168l-2.237-32.815c.395-.027.781-.06 1.168-.097l3.133 32.744Zm-7.245.344c-.345 0-.698-.002-1.044-.007l.453-32.889a38.935 38.935 0 0 0 1.184 0l.444 32.889c-.346.005-.691.007-1.036.007Z" clipRule="evenodd"/><defs><linearGradient id="a" x1="75.43" x2="23.822" y1="16.446" y2="111.972" gradientUnits="userSpaceOnUse"><stop stopColor="#265E6D"/><stop offset="1" stopColor="#7AE7C7"/></linearGradient></defs></svg>