<svg xmlns="http://www.w3.org/2000/svg" width="139" height="108" fill="none"><path fill="#7AE7C7" d="M135.27 1.64c0 .905.736 1.64 1.644 1.64.908 0 1.644-.735 1.644-1.64 0-.906-.736-1.64-1.644-1.64-.908 0-1.644.734-1.644 1.64ZM136.914 20.704a1.639 1.639 0 1 1 0-3.279 1.638 1.638 0 1 1 0 3.28ZM136.914 38.117a1.639 1.639 0 1 1 0-3.28 1.638 1.638 0 1 1 0 3.28ZM135.27 53.89c0 .905.736 1.639 1.644 1.639.908 0 1.644-.734 1.644-1.64 0-.905-.736-1.64-1.644-1.64-.908 0-1.644.735-1.644 1.64Z"/><path fill="#fff" d="M135.27 71.3c0 .906.736 1.64 1.644 1.64.908 0 1.644-.734 1.644-1.64 0-.905-.736-1.639-1.644-1.639-.908 0-1.644.734-1.644 1.64Z"/><path fill="#7AE7C7" d="M136.914 90.366a1.639 1.639 0 1 1 0-3.28c.911 0 1.644.733 1.644 1.64 0 .908-.733 1.64-1.644 1.64ZM135.27 106.138c0 .906.736 1.64 1.644 1.64.908 0 1.644-.734 1.644-1.64 0-.905-.736-1.639-1.644-1.639-.908 0-1.644.734-1.644 1.639Z"/><path fill="#fff" d="M117.592 3.293a1.638 1.638 0 1 1 0-3.28 1.639 1.639 0 1 1 0 3.28Z"/><path fill="#7AE7C7" d="M117.592 20.704a1.638 1.638 0 1 1 0-3.279 1.639 1.639 0 1 1 0 3.28ZM117.592 38.117a1.638 1.638 0 1 1 0-3.28 1.639 1.639 0 1 1 0 3.28ZM117.592 55.529a1.638 1.638 0 1 1 0-3.28 1.639 1.639 0 1 1 0 3.28ZM117.592 72.94a1.638 1.638 0 0 1-1.644-1.64c0-.907.733-1.639 1.644-1.639a1.639 1.639 0 1 1 0 3.28ZM117.592 90.366a1.638 1.638 0 1 1 0-3.28 1.639 1.639 0 1 1 0 3.28ZM117.592 107.778a1.639 1.639 0 1 1 0-3.279 1.638 1.638 0 1 1 0 3.279ZM96.612 1.64c0 .905.736 1.64 1.644 1.64.908 0 1.644-.735 1.644-1.64C99.9.734 99.164 0 98.256 0c-.908 0-1.644.734-1.644 1.64ZM98.256 20.704a1.639 1.639 0 1 1 0-3.279 1.64 1.64 0 1 1 0 3.28Z"/><path fill="#fff" d="M98.256 38.117a1.639 1.639 0 1 1 0-3.28 1.64 1.64 0 1 1 0 3.28Z"/><path fill="#7AE7C7" d="M96.612 53.89c0 .905.736 1.639 1.644 1.639.908 0 1.644-.734 1.644-1.64 0-.905-.736-1.64-1.644-1.64-.908 0-1.644.735-1.644 1.64ZM96.612 71.3c0 .906.736 1.64 1.644 1.64.908 0 1.644-.734 1.644-1.64 0-.905-.736-1.639-1.644-1.639-.908 0-1.644.734-1.644 1.64ZM98.256 90.366a1.639 1.639 0 1 1 0-3.28 1.64 1.64 0 1 1 0 3.28ZM96.612 106.138c0 .906.736 1.64 1.644 1.64.908 0 1.644-.734 1.644-1.64 0-.905-.736-1.639-1.644-1.639-.908 0-1.644.734-1.644 1.639ZM78.934 3.293a1.64 1.64 0 1 1 0-3.28 1.639 1.639 0 1 1 0 3.28ZM78.934 20.704a1.64 1.64 0 1 1 0-3.279 1.639 1.639 0 1 1 0 3.28ZM78.934 38.117a1.64 1.64 0 1 1 0-3.28 1.639 1.639 0 1 1 0 3.28ZM78.934 55.529a1.64 1.64 0 1 1 0-3.28 1.639 1.639 0 1 1 0 3.28Z"/><path fill="#fff" d="M78.934 72.94a1.64 1.64 0 1 1 0-3.279 1.639 1.639 0 1 1 0 3.28Z"/><path fill="#7AE7C7" d="M78.934 90.366a1.64 1.64 0 1 1 0-3.28 1.639 1.639 0 1 1 0 3.28ZM78.934 107.778a1.64 1.64 0 1 1 0-3.279 1.638 1.638 0 1 1 0 3.279ZM57.967 1.64c0 .905.736 1.64 1.644 1.64.908 0 1.645-.735 1.645-1.64 0-.906-.737-1.64-1.645-1.64s-1.644.734-1.644 1.64ZM59.611 20.704a1.639 1.639 0 1 1 0-3.279 1.64 1.64 0 1 1 0 3.28ZM59.611 38.117a1.639 1.639 0 1 1 0-3.28 1.64 1.64 0 1 1 0 3.28ZM57.967 53.89c0 .905.736 1.639 1.644 1.639.908 0 1.645-.734 1.645-1.64 0-.905-.737-1.64-1.645-1.64s-1.644.735-1.644 1.64ZM57.967 71.3c0 .906.736 1.64 1.644 1.64.908 0 1.645-.734 1.645-1.64 0-.905-.737-1.639-1.645-1.639s-1.644.734-1.644 1.64ZM59.611 90.366a1.639 1.639 0 1 1 0-3.28 1.64 1.64 0 1 1 0 3.28ZM57.967 106.138c0 .906.736 1.64 1.644 1.64.908 0 1.645-.734 1.645-1.64 0-.905-.737-1.639-1.645-1.639s-1.644.734-1.644 1.639ZM38.645 1.64c0 .905.736 1.64 1.644 1.64.908 0 1.644-.735 1.644-1.64 0-.906-.736-1.64-1.644-1.64-.908 0-1.644.734-1.644 1.64ZM40.289 20.704a1.639 1.639 0 1 1 0-3.279 1.638 1.638 0 1 1 0 3.28ZM40.289 38.117a1.639 1.639 0 1 1 0-3.28 1.638 1.638 0 1 1 0 3.28Z"/><path fill="#fff" d="M38.645 53.89c0 .905.736 1.639 1.644 1.639.908 0 1.644-.734 1.644-1.64 0-.905-.736-1.64-1.644-1.64-.908 0-1.644.735-1.644 1.64Z"/><path fill="#7AE7C7" d="M38.645 71.3c0 .906.736 1.64 1.644 1.64.908 0 1.644-.734 1.644-1.64 0-.905-.736-1.639-1.644-1.639-.908 0-1.644.734-1.644 1.64ZM40.289 90.366a1.639 1.639 0 1 1 0-3.28c.911 0 1.644.733 1.644 1.64 0 .908-.733 1.64-1.644 1.64ZM38.645 106.138c0 .906.736 1.64 1.644 1.64.908 0 1.644-.734 1.644-1.64 0-.905-.736-1.639-1.644-1.639-.908 0-1.644.734-1.644 1.639ZM20.967 3.293a1.638 1.638 0 1 1 0-3.28 1.639 1.639 0 1 1 0 3.28ZM20.967 20.704a1.638 1.638 0 1 1 0-3.279 1.639 1.639 0 1 1 0 3.28ZM20.967 38.117a1.638 1.638 0 1 1 0-3.28 1.639 1.639 0 1 1 0 3.28ZM20.967 55.529a1.638 1.638 0 1 1 0-3.28 1.639 1.639 0 1 1 0 3.28ZM20.967 72.94a1.638 1.638 0 0 1-1.644-1.64c0-.907.733-1.639 1.644-1.639a1.639 1.639 0 1 1 0 3.28Z"/><path fill="#fff" d="M20.967 90.366a1.638 1.638 0 1 1 0-3.28 1.639 1.639 0 1 1 0 3.28Z"/><path fill="#7AE7C7" d="M20.967 107.778a1.639 1.639 0 1 1 0-3.279 1.638 1.638 0 1 1 0 3.279ZM0 1.64c0 .905.737 1.64 1.645 1.64s1.644-.735 1.644-1.64C3.289.734 2.553 0 1.645 0 .737 0 0 .734 0 1.64Z"/><path fill="#fff" d="M1.645 20.704a1.64 1.64 0 1 1 0-3.279 1.639 1.639 0 1 1 0 3.28Z"/><path fill="#7AE7C7" d="M1.645 38.117a1.64 1.64 0 1 1 0-3.28 1.639 1.639 0 1 1 0 3.28ZM0 53.89c0 .905.737 1.639 1.645 1.639s1.644-.734 1.644-1.64c0-.905-.736-1.64-1.644-1.64-.908 0-1.645.735-1.645 1.64ZM0 71.3c0 .906.737 1.64 1.645 1.64s1.644-.734 1.644-1.64c0-.905-.736-1.639-1.644-1.639-.908 0-1.645.734-1.645 1.64ZM1.645 90.366a1.64 1.64 0 1 1 0-3.28 1.639 1.639 0 1 1 0 3.28ZM0 106.138c0 .906.737 1.64 1.645 1.64s1.644-.734 1.644-1.64c0-.905-.736-1.639-1.644-1.639-.908 0-1.645.734-1.645 1.639Z"/></svg>